<svg id="Layer_2" data-name="Layer 2" xmlns="http://www.w3.org/2000/svg" viewBox="0 0 350.36 595.06"><defs><style>.cls-1{fill:#5db3e4;}.cls-2{fill:#e12226;}.cls-3,.cls-5{fill:none;}.cls-3{stroke:#8f1a1c;stroke-width:3px;}.cls-3,.cls-6{stroke-miterlimit:10;}.cls-4{fill:#131210;}.cls-5{stroke:#dcdbdb;stroke-linecap:round;stroke-linejoin:round;stroke-width:6px;}.cls-6{fill:#fff;stroke:#050505;stroke-width:3.23px;}</style></defs><path class="cls-1" d="M296.85,179.48A50,50,0,0,0,256,228.64c0,.31,0,.62,0,.93h-87.4V179.48Z" transform="translate(-130.82 -95.22)"/><path class="cls-1" d="M443.39,179.48v50.09H356c0-.31,0-.62,0-.93a50,50,0,0,0-40.84-49.16Z" transform="translate(-130.82 -95.22)"/><path class="cls-2" d="M478.18,123v99.15a7.39,7.39,0,0,1-7.4,7.38H356c0-.31,0-.62,0-.93a50,50,0,0,0-40.84-49.16H296.85A50,50,0,0,0,256,228.64c0,.31,0,.62,0,.93H141.22a7.39,7.39,0,0,1-7.4-7.38V123a27.39,27.39,0,0,1,27.39-27.39H450.79A27.39,27.39,0,0,1,478.18,123Z" transform="translate(-130.82 -95.22)"/><path class="cls-3" d="M196.56,95.66a88.43,88.43,0,0,1-62.73,59.91" transform="translate(-130.82 -95.22)"/><path class="cls-3" d="M237.15,95.66a106.78,106.78,0,0,1-103.32,99.59" transform="translate(-130.82 -95.22)"/><path class="cls-3" d="M415.44,95.66a88.43,88.43,0,0,0,62.73,59.91" transform="translate(-130.82 -95.22)"/><path class="cls-3" d="M374.85,95.66a106.78,106.78,0,0,0,103.32,99.59" transform="translate(-130.82 -95.22)"/><path class="cls-4" d="M385.59,179.48a93.54,93.54,0,0,0-173.13,49.16c0,.31,0,.62,0,.93H256c0-.31,0-.62,0-.93a50,50,0,0,1,40.85-49.16,50.31,50.31,0,0,1,18.31,0A50,50,0,0,1,356,228.64c0,.31,0,.62,0,.93h43.54c0-.31,0-.62,0-.93A93,93,0,0,0,385.59,179.48Z" transform="translate(-130.82 -95.22)"/><path class="cls-1" d="M443.39,229.57V417.49H168.61V229.57H256c0-.31,0-.62,0-.93a50,50,0,0,1,40.85-49.16h18.31A50,50,0,0,1,356,228.64c0,.31,0,.62,0,.93Z" transform="translate(-130.82 -95.22)"/><path class="cls-5" d="M478.18,222.19a7.39,7.39,0,0,1-7.4,7.38H356c0-.31,0-.62,0-.93a50,50,0,0,0-40.84-49.16H296.85A50,50,0,0,0,256,228.64c0,.31,0,.62,0,.93H141.22a7.39,7.39,0,0,1-7.4-7.38" transform="translate(-130.82 -95.22)"/><path class="cls-1" d="M315.15,606A50,50,0,0,0,356,556.86c0-.31,0-.62,0-.93h87.4V606Z" transform="translate(-130.82 -95.22)"/><path class="cls-1" d="M168.61,606V555.93H256c0,.31,0,.62,0,.93A50,50,0,0,0,296.84,606Z" transform="translate(-130.82 -95.22)"/><path class="cls-2" d="M133.82,662.45V563.31a7.39,7.39,0,0,1,7.4-7.38H256c0,.31,0,.62,0,.93A50,50,0,0,0,296.84,606h18.31A50,50,0,0,0,356,556.86c0-.31,0-.62,0-.93H470.78a7.39,7.39,0,0,1,7.4,7.38v99.14a27.39,27.39,0,0,1-27.39,27.39H161.21A27.39,27.39,0,0,1,133.82,662.45Z" transform="translate(-130.82 -95.22)"/><path class="cls-3" d="M415.44,689.84a88.43,88.43,0,0,1,62.73-59.91" transform="translate(-130.82 -95.22)"/><path class="cls-3" d="M374.85,689.84a106.78,106.78,0,0,1,103.32-99.59" transform="translate(-130.82 -95.22)"/><path class="cls-3" d="M196.56,689.84a88.43,88.43,0,0,0-62.73-59.91" transform="translate(-130.82 -95.22)"/><path class="cls-3" d="M237.15,689.84a106.78,106.78,0,0,0-103.32-99.59" transform="translate(-130.82 -95.22)"/><path class="cls-4" d="M226.41,606a93.54,93.54,0,0,0,173.13-49.15c0-.31,0-.62,0-.93H356c0,.31,0,.62,0,.93a50,50,0,0,1-100,0c0-.31,0-.62,0-.93H212.47c0,.31,0,.62,0,.93A93,93,0,0,0,226.41,606Z" transform="translate(-130.82 -95.22)"/><path class="cls-1" d="M168.61,555.93V417.49H443.39V555.93H356c0,.31,0,.62,0,.93A50,50,0,0,1,315.15,606H296.84A50,50,0,0,1,256,556.86c0-.31,0-.62,0-.93Z" transform="translate(-130.82 -95.22)"/><path class="cls-5" d="M133.82,563.31a7.39,7.39,0,0,1,7.4-7.38H256c0,.31,0,.62,0,.93A50,50,0,0,0,296.84,606h18.31A50,50,0,0,0,356,556.86c0-.31,0-.62,0-.93H470.78a7.39,7.39,0,0,1,7.4,7.38" transform="translate(-130.82 -95.22)"/><rect class="cls-6" x="54.67" y="191.21" width="117.35" height="117.35" rx="9.87"/></svg>